<?xml version="1.0" encoding="utf-8"?>
<!-- Generator: Adobe Illustrator 18.1.1, SVG Export Plug-In . SVG Version: 6.00 Build 0)  -->
<svg version="1.1" id="Livello_1" xmlns="http://www.w3.org/2000/svg" xmlns:xlink="http://www.w3.org/1999/xlink" x="0px" y="0px"
	 viewBox="72 78 290 130" enable-background="new 72 78 290 130" xml:space="preserve">
<g>
	<path fill="#D1D3D4" d="M143.5,174.5c-10.3-2.2-12.6-2.6-12.6-2.6l4.4-3.1l0.1-0.5c3.8,0.2,7.6,0,10.9-0.7
		c11.6-2.4,13.1-11.9,13.1-11.9c5.1,0.4,7-1,7-1c6.4-4.3,2.8-9.7,2.8-9.7c-0.5,4.5-5.4,2.9-5.4,2.9L159,147c3.1-3.6,4-9.3,4-9.3
		s0.4-4,0.3-13.7c-0.1-9.8,2.3-15.9,2.9-18.2c0.4-1.6,0.8-2.1,1.3-2.3c0.7-0.4,1.6,1.1,1.6,1.1c0.1-3.1-2.5-2.6-2.5-2.6
		c-2.9,1.4-4.6,4.4-5.7,7.7c0.2-0.9,0.4-1.8,0.7-2.8s0.6-2.1,1-3.1s0.8-2.1,1.4-3c0.5-1,1.2-1.9,1.9-2.7c0.4-0.4,0.8-0.7,1.2-1
		c0.1-0.1,0.2-0.1,0.3-0.2l0.2-0.1l0.2-0.1c0.2-0.1,0.5-0.2,0.7-0.3c1-0.3,2-0.4,2.9-0.3s1.8,0.5,2.4,1c0.7,0.5,1.2,1.1,1.6,1.6
		c0.4,0.5,0.7,1.1,0.9,1.5s0.4,0.8,0.5,1s0.1,0.4,0.1,0.4s0-0.1-0.1-0.4s-0.2-0.6-0.4-1.1s-0.5-1-0.9-1.6s-0.9-1.2-1.6-1.8
		c-0.7-0.5-1.6-1-2.6-1.2s-2.1-0.1-3.1,0.2c-0.3,0.1-0.5,0.2-0.8,0.3l-0.2,0.1l-0.2,0.1c-0.1,0.1-0.3,0.1-0.4,0.2
		c-0.5,0.3-1,0.7-1.4,1.1c-0.8,0.8-1.5,1.8-2,2.8c-0.6,1-1,2.1-1.4,3.1c-0.4,1.1-0.7,2.1-1,3.2c-0.3,1-0.5,2-0.7,3s-0.3,1.9-0.4,2.7
		c-0.2,1.7-0.3,3.1-0.4,4.1c0,0.1,0,0.1,0,0.2c-0.4,4.2-0.2,7.6-0.2,7.6c-0.6-1.8-0.7-10.7-0.7-10.7s1.8-3.3,0.8-3
		c-8.9,2.5-22,1.9-22,1.9s-12.6-0.2-14.7,0.6c-2.1,0.8-4.4,3.9-3.5,3.7c0.9-0.1,18.9-0.4,18.9-0.4l-19.3,2.2c0,0,0,0-0.1,0.1
		c-0.3,0-0.6,0.1-0.9,0.1c-1,0.1-2,0.3-3,0.5c-1.1,0.2-2.1,0.4-3.2,0.7c-1.1,0.3-2.2,0.7-3.2,1.2s-2.1,1.1-2.9,1.9
		c-0.4,0.4-0.8,0.8-1.1,1.3c-0.1,0.1-0.2,0.2-0.2,0.4l-0.1,0.2l-0.1,0.2c-0.1,0.3-0.2,0.5-0.3,0.8c-0.4,1-0.6,2.1-0.4,3.1
		c0.1,1,0.5,1.9,1,2.6c0.5,0.7,1.1,1.3,1.6,1.7c0.6,0.4,1.1,0.7,1.5,1c0.4,0.2,0.8,0.4,1.1,0.5c0.2,0.1,0.4,0.1,0.4,0.1
		s-0.1-0.1-0.4-0.2c-0.2-0.1-0.6-0.3-1-0.5c-0.4-0.3-0.9-0.6-1.4-1s-1-1-1.5-1.7c-0.4-0.7-0.8-1.5-0.8-2.5c-0.1-0.9,0.1-1.9,0.5-2.9
		c0.1-0.2,0.2-0.5,0.3-0.7l0.1-0.2l0.1-0.2c0.1-0.1,0.1-0.2,0.2-0.3c0.3-0.4,0.7-0.8,1.1-1.2c0.8-0.7,1.8-1.3,2.8-1.7
		c1-0.5,2.1-0.8,3.1-1.2c1.1-0.3,2.1-0.6,3.1-0.8c1-0.2,2-0.4,3-0.5l0,0c-1.5,1.1-4.3,3.6-4.2,6.7c0.1,4.2,3.1,4.5,3.1,4.5
		c-1.9-1.6-1.5-2.2-1.5-2.2c0.1-5.8,7.1-5.8,7.1-5.8s19.2-1.3,24.1-1.1c4.9,0.1,8-3,8-3s0,2.9,0.2,6.7c-0.1-0.4-0.1-0.6-0.1-0.6
		s0.1,0.5,0.2,1.3c0,0.4,0.1,0.9,0.1,1.5s0.1,1.3,0.1,2s0,1.5,0,2.4c0,0.8-0.1,1.7-0.3,2.6c-0.1,0.9-0.4,1.8-0.7,2.7
		s-0.8,1.7-1.4,2.4c-0.3,0.3-0.6,0.7-1,0.9l-0.3,0.2c-0.1,0.1-0.2,0.1-0.3,0.2l-0.3,0.2c-0.1,0-0.2,0.1-0.3,0.1
		c-0.9,0.3-1.8,0.5-2.7,0.5c-0.1,0-0.2,0-0.3,0s-0.2,0-0.3,0c-0.2,0-0.4-0.1-0.6-0.1c-0.4-0.1-0.8-0.3-1.1-0.5s-0.6-0.5-0.9-0.7
		c-0.3-0.3-0.5-0.6-0.7-0.9c-0.4-0.6-0.7-1.2-0.9-1.7c-0.2-0.6-0.4-1-0.5-1.5c-0.2-0.8-0.3-1.3-0.3-1.3s0,0.1,0,0.4
		c0,0.2,0,0.6,0.1,1s0.2,0.9,0.4,1.5s0.4,1.2,0.8,1.9c0.2,0.3,0.4,0.6,0.7,0.9c0.3,0.3,0.6,0.6,1,0.8c0.7,0.5,1.7,0.8,2.6,0.8
		c0.2,0,0.5,0,0.7,0c0.1,0,0.2,0,0.4,0c0.1,0,0.2,0,0.4-0.1l0.4-0.1l0.4-0.1h0.2h0.1l0,0l0,0l0,0l0,0l0.3-0.1c0.1,0,0.2-0.1,0.3-0.1
		l0.4-0.2c0.1-0.1,0.2-0.1,0.3-0.2l0.3-0.2c0.4-0.3,0.8-0.6,1.2-1c0.7-0.8,1.2-1.7,1.5-2.6c0.3-0.9,0.5-1.9,0.7-2.8
		c0.1-0.8,0.2-1.5,0.2-2.3c0.1,0.4,0.1,0.9,0.2,1.3c0.8,4.7,0.4,13.4,0.4,13.4s-9.8-1.1-10.5-1s-2.3,4.2-2.3,4.2
		c1.6-0.4,4.6,0.1,4.6,0.1c-1.7-0.1-4.6,1.1-4.6,1.1c-3.9,6.3,0.7,6.9,0.7,6.9s-2.6-1.1-0.5-2.8s14.5,0.4,14.5,0.4
		c-3.4,7.3-10.8,5.6-10.8,5.6l-10.4-1.3l-0.7-0.4l-0.4-26.8c0,0,0.1-7.1,1.6-8.3c1.5-1.2,2.7,1.9,2.7,1.9c-0.3-4.5-4-2.9-4-2.9
		l-3.9,4l-0.7,21.4c-0.5-5.2-0.5-18.6-0.5-18.6s-0.5,1.1-2.3,2.9c-1.8,1.8-1.9,4.5-1.9,4.5l1.1,13.9c-5-6.1-9.2-3.6-9.2-3.6
		s-3.9,1.9-4,7.2s7.4,6.8,7.4,6.8c-4,0.2-7.4-2.8-7.4-2.8l0.7,5.6c0.5,0.6,6.9,2.3,14.4,3.1c0.2,1.3,0.3,3.7-0.9,3.8
		c-0.7-0.1-1.4-0.2-2.1-0.3c-1.1-0.1-2.2-0.2-3.3-0.3c-0.3,0-0.6-0.1-0.8-0.1c-0.3,0-0.6,0-0.9-0.1c-0.6,0-1.1-0.1-1.7-0.1
		s-1.2-0.1-1.7-0.1c-0.6,0-1.2,0-1.7,0c-1.2,0-2.3-0.1-3.5,0c-1.2,0-2.3,0-3.5,0.1s-2.3,0.2-3.5,0.2c-0.3,0-0.6,0-0.9,0.1H105h-0.2
		h-0.4c-0.6,0.1-1.1,0.1-1.7,0.2c-0.6,0.1-1.1,0.2-1.7,0.3l-0.4,0.1l-0.4,0.1c-0.3,0.1-0.5,0.1-0.8,0.2c-2.2,0.4-4.2,1.1-6.1,1.9
		c-0.2,0.1-0.5,0.2-0.7,0.3s-0.4,0.2-0.7,0.4c-0.4,0.2-0.8,0.5-1.2,0.8c-0.2,0.1-0.4,0.3-0.6,0.4c-0.2,0.1-0.4,0.3-0.5,0.4
		c-0.2,0.2-0.3,0.3-0.5,0.5c-0.1,0.1-0.2,0.2-0.2,0.2c-0.1,0.1-0.1,0.2-0.2,0.3c-0.6,0.7-1.1,1.4-1.4,2.1c-0.1,0.2-0.2,0.4-0.2,0.5
		c-0.1,0.2-0.1,0.4-0.2,0.6c0,0.1-0.1,0.2-0.1,0.3s0,0.2-0.1,0.3c0,0.2-0.1,0.4-0.1,0.5c-0.1,0.7-0.2,1.4-0.1,2
		c0,0.6,0.1,1.2,0.2,1.7c0.2,1,0.5,1.8,0.7,2.3s0.4,0.8,0.4,0.8s-0.1-0.3-0.3-0.8c-0.2-0.5-0.4-1.3-0.6-2.3
		c-0.1-0.5-0.1-1.1-0.2-1.7c0-0.6,0-1.3,0.2-2c0.3-1.4,1-2.8,2.2-4.1c0.1-0.1,0.1-0.2,0.2-0.2c0.1-0.1,0.2-0.1,0.2-0.2
		c0.2-0.1,0.3-0.3,0.5-0.4c0.2-0.1,0.4-0.3,0.5-0.4c0.2-0.1,0.4-0.3,0.6-0.4c0.4-0.2,0.8-0.5,1.2-0.7c0.2-0.1,0.4-0.2,0.6-0.3
		s0.4-0.2,0.7-0.3c1.8-0.8,3.9-1.4,6-1.8c0.3-0.1,0.5-0.1,0.8-0.2l0.4-0.1l0.4-0.1c0.5-0.1,1.1-0.2,1.6-0.2c0.6-0.1,1.1-0.1,1.7-0.2
		h0.4h0.2h0.2c0.3,0,0.6,0,0.9-0.1c1.1-0.1,2.3-0.1,3.5-0.2c1.2,0,2.3,0,3.5-0.1c1.2,0,2.3,0,3.5,0c0.6,0,1.2,0,1.7,0
		c0.6,0,1.2,0.1,1.7,0.1c0.6,0,1.1,0.1,1.7,0.1c0.3,0,0.6,0,0.8,0c0.1,0,0.3,0,0.4,0c-0.8,0.5-2.6,1.9-2.6,4.4c0,0,8.7-1.3,18,1.8
		c0,0-13.6-2.9-19.2-0.4l-2,5c0,0-0.7,2.5,2.7,2.5c0,0-2.1-0.4-0.9-2.5s9.3-1,9.3-1l14,2c0,0,5.6,1.3,7.7-0.7c2.1-2,5.6-6.7,6-8.4
		C155.6,174.2,153.7,176.6,143.5,174.5z M128.5,158.5C128.5,158.5,128.5,158.4,128.5,158.5c-0.2-0.1-1.2-0.5-6-1.7
		c-6.9-1.8-4.5-6.5-4.5-6.5c1.6-1.3,4.1,0,4.1,0C126.9,152.4,128.4,157.9,128.5,158.5C128.6,158.5,128.5,158.5,128.5,158.5z"/>
	<path fill="#D1D3D4" d="M179.4,125.6c0,0,0.3-0.1,0.7-0.4c-0.1,0-0.1,0.1-0.2,0.1c-0.2,0.1-0.3,0.2-0.4,0.2
		C179.4,125.6,179.4,125.6,179.4,125.6s0,0,0.1-0.1c0.1,0,0.2-0.1,0.4-0.2c0.4-0.2,0.8-0.5,1.4-0.9c0.3-0.2,0.6-0.5,0.9-0.7
		c0.3-0.3,0.7-0.6,1-1c0.2-0.2,0.4-0.4,0.5-0.6c0.2-0.2,0.4-0.4,0.6-0.6c0.2-0.2,0.4-0.4,0.6-0.7c0.1-0.1,0.2-0.2,0.3-0.3
		c0.1-0.1,0.2-0.2,0.3-0.4c0.2-0.2,0.4-0.5,0.6-0.8c0.2-0.3,0.4-0.5,0.6-0.8c0.2-0.3,0.4-0.6,0.6-0.9c0.2-0.3,0.4-0.6,0.6-0.9
		c0.4-0.6,0.7-1.3,1.1-1.9c0.3-0.7,0.7-1.4,1-2c0.2-0.3,0.3-0.7,0.5-1.1s0.3-0.7,0.5-1.1s0.3-0.7,0.5-1.1c0.1-0.4,0.3-0.8,0.4-1.1
		c0.1-0.4,0.3-0.8,0.4-1.1c0.1-0.4,0.3-0.8,0.4-1.2c0.3-0.8,0.5-1.6,0.8-2.4s0.5-1.6,0.8-2.3c0.1-0.4,0.3-0.8,0.4-1.2
		c0.1-0.4,0.3-0.8,0.4-1.1c0.6-1.5,1.3-2.9,2.1-4.3c0.8-1.3,1.6-2.5,2.6-3.6c0.9-1,2-1.9,3-2.5c1.1-0.6,2.1-1,3.1-1.2
		s1.9-0.2,2.6-0.1c0.7,0.1,1.3,0.2,1.6,0.3c0.4,0.1,0.6,0.2,0.6,0.2s-0.2-0.1-0.5-0.2c-0.4-0.1-0.9-0.3-1.6-0.4
		c-0.7-0.1-1.6-0.1-2.6,0s-2.1,0.5-3.2,1.1c-1.1,0.6-2.2,1.4-3.2,2.5c-1,1-1.9,2.3-2.7,3.6c-0.2,0.3-0.4,0.7-0.6,1
		c-0.2,0.3-0.4,0.7-0.6,1.1c-0.2,0.4-0.4,0.7-0.5,1.1c-0.2,0.4-0.3,0.7-0.5,1.1s-0.3,0.8-0.5,1.2c-0.1,0.4-0.3,0.8-0.4,1.2
		c-0.3,0.8-0.5,1.6-0.8,2.3c-0.3,0.8-0.5,1.6-0.8,2.3c-0.1,0.4-0.3,0.8-0.4,1.2c-0.1,0.4-0.3,0.8-0.4,1.1c-0.1,0.4-0.3,0.8-0.4,1.1
		c-0.2,0.4-0.3,0.7-0.5,1.1s-0.3,0.7-0.5,1.1s-0.3,0.7-0.5,1.1c-0.3,0.7-0.7,1.4-1,2c-0.4,0.6-0.7,1.3-1,1.9c0,0,0,0.1-0.1,0.1
		c0.9-2.1,1.7-4.7,1.9-7.8c0,0,0.1-1.3,0-4.3s-0.2-6.7,1.7-8.3c1.9-1.6,2.6,1.7,2.6,1.7s0.1-2.7-2.2-2.8c-2.4-0.1-2.4-0.1-2.4-0.1
		s-4.1,2.3-4.4,8.4c-0.2,5.9-0.3,7.9-0.3,7.9s-0.9-8.1,0.1-10.2s-4,4-4,4s-0.7,4.8,0.4,10.7c0,0,0.4,3.1-0.2,4.8c0,0-1-9.4-1.9-9.4
		l-0.7,3C178,114.3,179.5,118.3,179.4,125.6z"/>
	<path fill="#D1D3D4" d="M262.5,175c0,0-2.5,2.8-4.3,3c0,0,4.8-3.5,4.6-10.5c-0.1-7.3,0.4-16.7,0.4-16.7s0.6-13,4.9-16.7
		c0,0,0-0.7-1.2,0c-0.2,0.2-0.7,0.3-1.4,0.5c0.9-0.8,2.7-3.1,1.5-6.1c0,0,0.1,2.4-2.7,1.6c-2.3-0.7-9.4-9-11.8-11.9
		c0,0-0.1-0.1-0.3-0.3l-0.1-0.1c-0.3-0.3-0.4-0.5-0.4-0.5s-0.2-0.2-0.5-0.5s-0.6-0.6-0.9-0.9c-0.5-0.5-1.1-0.9-1.8-1.4
		s-1.4-1-2.3-1.5c-0.8-0.5-1.7-1-2.7-1.4c-0.2-0.1-0.5-0.2-0.7-0.3c-0.2-0.1-0.5-0.2-0.7-0.3c-0.3-0.1-0.5-0.2-0.8-0.3l-0.4-0.1
		l-0.4-0.1c-0.3-0.1-0.5-0.2-0.8-0.3c-0.3-0.1-0.5-0.2-0.8-0.2c-0.5-0.2-1.1-0.3-1.6-0.4c-0.3-0.1-0.6-0.1-0.8-0.2
		c-0.3,0-0.6-0.1-0.8-0.1c-0.6-0.1-1.1-0.1-1.7-0.2c-0.6,0-1.1-0.1-1.6-0.1s-1.1,0-1.6,0s-1,0-1.5,0s-1,0.1-1.5,0.1
		s-0.9,0.1-1.4,0.2c-0.4,0.1-0.9,0.1-1.3,0.2c-0.4,0.1-0.8,0.1-1.2,0.2s-0.7,0.2-1.1,0.2c-0.7,0.2-1.2,0.3-1.7,0.4s-0.8,0.3-1.1,0.3
		c-0.2,0.1-0.4,0.1-0.4,0.1s0.1,0,0.4-0.1c0.3-0.1,0.6-0.1,1.1-0.2s1.1-0.2,1.7-0.3c0.7-0.1,1.4-0.2,2.2-0.3
		c0.4-0.1,0.8-0.1,1.3-0.1c0.4,0,0.9-0.1,1.4-0.1s1-0.1,1.5-0.1s1,0,1.5,0s1,0,1.6,0.1c0.5,0,1.1,0.1,1.6,0.1
		c0.5,0.1,1.1,0.1,1.6,0.2c0.3,0,0.5,0.1,0.8,0.1l0.4,0.1c0.1,0,0.3,0.1,0.4,0.1c0.5,0.1,1.1,0.2,1.6,0.4c0.3,0.1,0.5,0.1,0.8,0.2
		s0.5,0.2,0.8,0.2l0.4,0.1l0.4,0.1c0.3,0.1,0.5,0.2,0.8,0.3c0.2,0.1,0.5,0.2,0.7,0.3c0.2,0.1,0.5,0.2,0.7,0.3
		c0.2,0.1,0.5,0.2,0.7,0.3c0.2,0.1,0.5,0.2,0.7,0.3c0.5,0.2,0.9,0.5,1.3,0.7c0.2,0.1,0.5,0.3,0.7,0.4c-0.8-0.3-1.5-0.5-2.2-0.5
		l-3.3,1.3c0,0,6.6,2.3,8.8,6.2c0,0-6.4-6-11.7-5.5c-5.3,0.6-4.7,5.9-4.7,5.9s4.1-6.1,12.8,3.9c2.9,3.4,7.7,7.9,11.9,10
		c-1.1-0.2-2.1-0.6-3-1.1c-4-2.4-5.6-4.5-8.2-4.5l-4.6,2.9c0,0,3.2,0.3,7.5,4.2c0,0-7.8-3.7-9.3-2.6c-1.4,1.1-6.3,6.5-6.3,6.5
		s2.6,1.9,2.2,9.2c0,0-0.9-7.6-3-7.3c0,0-5.5,4-4.6,7.2c0,0,0.9-3.2,2.7-2.4c0,0,3-0.7,2.4,20.8c0,0-2.6-0.7-3,0s-2.3,4.4-2.3,4.4
		s2.2-2.2,8.2,1.3c0.1,0.1,0.3,0.2,0.4,0.2c0,0-6.9-3.2-8.6,0l-2.4,4c0,0-1.5,3.4,1.4,5.2c-0.8-0.6-2-2.1,0.1-5.3
		c0,0,0.5-2.5,8.1,1.3s14.3,5.4,19.4,3.1C260.8,179.4,262.5,175,262.5,175z M259.8,141.5c0.1-0.4,0.3-0.7,0.4-0.9
		C260.2,140.5,260,140.9,259.8,141.5c-0.9,3.2-1.3,12-1.3,12C257.6,148.1,259,143.4,259.8,141.5z M255.1,159.7l-2.8-8.1l-0.5,4.3
		c0,0,7,15.4,3.2,19.8c-3.8,4.4-13.2-4.1-13.2-4.1l-2.6-2c1.1-0.7,1.1-2.3,1.1-2.3v-28.5c0.4-1.8,4,0,4,0c8.3,4.8,12.9,2.8,12.9,2.8
		c-2.2,3.1-2.3,6.4-2.3,6.4L255.1,159.7z"/>
	<path fill="#D1D3D4" d="M228.7,193.1c-0.2,0-0.4,0.1-0.6,0.2c-0.2,0-0.4,0.1-0.7,0.1c-0.2,0-0.5,0.1-0.7,0.1
		c-0.3,0-0.5,0.1-0.8,0.1c-0.6,0.1-1.2,0.1-1.9,0.2c-1.3,0.1-2.8,0.1-4.5,0.1c-0.4,0-0.8,0-1.3-0.1c-0.4,0-0.9-0.1-1.3-0.1
		c-0.4,0-0.9-0.1-1.3-0.1c-0.5-0.1-0.9-0.1-1.4-0.2c-0.2,0-0.5-0.1-0.7-0.1s-0.5-0.1-0.7-0.1c-0.5-0.1-1-0.2-1.4-0.3
		c-0.2,0-0.5-0.1-0.7-0.1s-0.5-0.1-0.7-0.2c-0.5-0.1-1-0.2-1.5-0.4c-0.2-0.1-0.5-0.1-0.8-0.2c-0.3-0.1-0.5-0.1-0.8-0.2
		c-0.5-0.2-1-0.3-1.5-0.5s-1-0.3-1.5-0.5c-0.1,0-0.3-0.1-0.4-0.1l-0.4-0.1c-0.3-0.1-0.5-0.2-0.8-0.3c-0.5-0.2-1-0.4-1.5-0.6
		l-0.8-0.3l-0.4-0.1l-0.4-0.2c-1-0.4-2-0.9-3-1.3c-1-0.4-2-0.9-3-1.3c-0.5-0.2-1-0.4-1.5-0.6c-0.3-0.1-0.5-0.2-0.8-0.3
		s-0.5-0.2-0.8-0.3c-0.5-0.2-1-0.4-1.5-0.6c-0.3-0.1-0.5-0.2-0.8-0.3l-0.4-0.1l-0.4-0.1c-1-0.3-2-0.7-3-1s-2-0.6-2.9-0.8
		c-0.5-0.1-1-0.2-1.4-0.4c-0.5-0.1-0.9-0.2-1.4-0.3c-0.2-0.1-0.5-0.1-0.7-0.2c-0.2,0-0.5-0.1-0.7-0.1c-0.5-0.1-0.9-0.2-1.3-0.2
		c-0.2,0-0.4-0.1-0.7-0.1c-0.2,0-0.4-0.1-0.6-0.1c-0.4-0.1-0.8-0.1-1.3-0.2c-0.2,0-0.4-0.1-0.6-0.1c-0.2,0-0.4,0-0.6,0
		c-0.3,0-0.6,0-0.9-0.1c5.1,0,9.5,0.4,9.5,0.4s1.6,0.1,4.5-6.2s0-7.9,0-7.9c0.8,4.9-5.5,4.9-5.5,4.9h-3c4.9-3.4,7.7-26.5,7.7-26.5
		l1.5-6.5c0,0,0.8,1.3,6.1-3.4c5.4-4.6,3.1-8.9,3.1-8.9c-0.3,2.2-3.4,3.2-6.1,3.7c-0.1,0-0.3,0-0.5,0s-0.5,0-0.7,0
		c-0.3,0-0.5,0-0.8,0s-0.6,0-0.9,0c-0.3,0-0.6,0-1,0c-0.7,0-1.3-0.1-2.1-0.1c-0.7,0-1.5-0.1-2.2-0.1c-0.8,0-1.5-0.1-2.3-0.2
		c-0.4,0-0.8-0.1-1.1-0.1c-0.2,0-0.4,0-0.6-0.1c-0.2,0-0.4,0-0.6-0.1c-0.7-0.1-1.4-0.2-2.1-0.5c-0.7-0.2-1.3-0.5-1.8-0.8
		s-1-0.7-1.4-1.1c-0.8-0.8-1.1-1.7-1.3-2.3c-0.2-0.6-0.2-1-0.2-1s0,0.1,0,0.3c0,0.2,0,0.4,0.1,0.8c0.1,0.3,0.2,0.7,0.4,1.2
		c0.2,0.4,0.4,0.9,0.8,1.4c0.4,0.5,0.8,0.9,1.4,1.3c0.6,0.4,1.2,0.7,1.9,1c0.7,0.2,1.4,0.4,2.2,0.5c0.2,0,0.4,0.1,0.6,0.1
		c0.2,0,0.4,0,0.6,0.1c0.4,0,0.8,0.1,1.1,0.1c0.8,0.1,1.5,0.1,2.3,0.1c0.4,0,0.8,0,1.1,0c0.4,0,0.7,0,1.1,0c0.7,0,1.4,0,2,0
		l-12.7,0.7l-3.1,4.5l8.6-0.4l-8.8,2l-0.8,1.5c-1.8,4.4,0.4,4.6,0.4,4.6c-0.3-2.5,3-3.3,3-3.3l7.6-0.4l-4.2,5.4
		c0,0-1.6,20.6-1.6,22.3c0,3.7-2.6,4.6-2.6,4.6l-6.4,0.1l-3.8,3.7c4.8-0.4,8.2,0,9.2,0.2c-2.9-0.4-8.6,0.6-8.6,0.6s-3.3,3.1-4.2,5.1
		c-1,1.9,0.5,3.4,0.5,3.4c0.1-2.4,0.7-2.5,0.7-2.5c1-0.7,2.4-1.2,4.1-1.5l0,0l0,0c1.4-0.3,3-0.5,4.6-0.6c0.3,0,0.5,0,0.8,0
		s0.6,0,1,0c1.3,0.1,2.8,0.2,4.5,0.4c0.4,0.1,0.8,0.1,1.2,0.2c0.2,0,0.4,0.1,0.6,0.1c0.2,0,0.4,0.1,0.6,0.1c0.4,0.1,0.9,0.2,1.3,0.3
		c0.2,0,0.5,0.1,0.7,0.1c0.2,0.1,0.5,0.1,0.7,0.2c0.5,0.1,0.9,0.2,1.4,0.3s0.9,0.2,1.4,0.4c0.9,0.3,1.9,0.6,2.9,0.9c1,0.3,2,0.7,3,1
		l0.4,0.1l0.4,0.1c0.2,0.1,0.5,0.2,0.7,0.3c0.5,0.2,1,0.4,1.5,0.6c0.3,0.1,0.5,0.2,0.8,0.3s0.5,0.2,0.8,0.3c0.5,0.2,1,0.4,1.5,0.6
		c1,0.4,2,0.9,3,1.3c1,0.4,2,0.9,3,1.3l0.4,0.2l0.4,0.1c0.3,0.1,0.5,0.2,0.8,0.3c0.5,0.2,1,0.4,1.5,0.6c0.3,0.1,0.5,0.2,0.8,0.3
		l0.4,0.1c0.1,0,0.3,0.1,0.4,0.1c0.5,0.2,1,0.3,1.5,0.5s1,0.3,1.5,0.4c0.3,0.1,0.5,0.1,0.8,0.2c0.3,0.1,0.5,0.1,0.8,0.2
		c2,0.5,4,0.8,5.9,1.1c0.5,0.1,0.9,0.1,1.4,0.2c0.5,0,0.9,0.1,1.4,0.1c0.4,0,0.9,0,1.3,0.1c0.4,0,0.9,0.1,1.3,0c0.4,0,0.8,0,1.2,0
		c0.2,0,0.4,0,0.6,0c0.2,0,0.4,0,0.6,0c0.4,0,0.7-0.1,1.1-0.1c0.2,0,0.4,0,0.5,0c0.2,0,0.3,0,0.5-0.1c0.7-0.1,1.3-0.2,1.9-0.3
		c0.3-0.1,0.6-0.1,0.8-0.2c0.3,0,0.5-0.1,0.7-0.2c0.2-0.1,0.5-0.1,0.7-0.2C228.4,193.3,228.5,193.2,228.7,193.1
		c0.4,0,0.7-0.1,0.9-0.2c0.5-0.2,0.7-0.3,0.7-0.3s-0.3,0.1-0.7,0.3C229.4,192.9,229.1,193,228.7,193.1z M179,144.4
		c0-3,1.7-4.4,1.7-4.4l3.1-0.7l-2.9,2.8l-2.7,10.1L179,144.4z M170,176.7c-0.1,0-0.1,0-0.2,0C169.9,176.7,170,176.7,170,176.7z"/>
	<path fill="#D1D3D4" d="M210.6,127c-0.2-0.2-0.4-0.4-0.6-0.6c-0.7-0.8-1.5-1.6-2.3-2.5c-0.8-0.8-1.6-1.6-2.5-2.3
		c-0.9-0.7-1.8-1.3-2.7-1.8s-1.9-0.9-2.8-1.2c-0.9-0.3-1.8-0.5-2.7-0.6c-1.7-0.2-3.1,0-4.1,0.2c-0.5,0.1-0.8,0.2-1.1,0.3
		c-0.2,0.1-0.4,0.2-0.4,0.2s0.1-0.1,0.4-0.1c0.3-0.1,0.6-0.2,1.1-0.2c0.5-0.1,1.1-0.1,1.7-0.1c0.7,0,1.4,0.1,2.2,0.2
		s1.7,0.4,2.6,0.7c0.2,0.1,0.4,0.1,0.6,0.2c-0.2,0.1-0.3,0.2-0.4,0.5c-0.4,0.9,0.9,1.5,2.1,1.5c1.2,0,3,1,4,1.6
		c0.5,0.5,1,0.9,1.5,1.5c0.8,0.8,1.5,1.6,2.3,2.4c0.4,0.4,0.8,0.8,1.1,1.2c0.2,0.2,0.4,0.4,0.6,0.6c0.2,0.2,0.4,0.4,0.6,0.6
		c0.7,0.7,1.5,1.4,2.2,2.1c0.1,0.1,0.2,0.2,0.3,0.2c-2.3-1.6-3.8-2.8-5.7-2.8l-4.8,2.9c0,0,3.3,0.3,7.8,4.2c0,0-8.1-3.8-9.6-2.6
		s-6.5,6.6-6.5,6.6s2.7,2,2.3,9.3c0,0-1-7.7-3.1-7.4c0,0-5.7,4-4.8,7.3c0,0,1-3.2,2.8-2.4c0,0,3.1-0.7,2.5,21.1c0,0-2.7-0.7-3.1,0
		c-0.4,0.7-2.4,4.5-2.4,4.5s2.3-2.2,8.5,1.3c0.1,0.1,0.3,0.2,0.4,0.2c0,0-7.1-3.2-8.9,0l-2.5,4c0,0-1.5,3.5,1.5,5.3
		c-0.9-0.6-1-3.4,0.5-5c0,0,2.2-2.5,8,0.8c7.6,4.4,14.8,5.5,20.1,3.2c5.4-2.3,7.2-6.9,7.2-6.9s-2.6,2.9-4.5,3c0,0,4-1.7,3.4-8.8
		s1.1-21.4,1.1-21.4s1.4-10.6,5.8-14.4c0,0,0-0.8-1.2,0c-1,0.7-6.3,1.7-10.4,0.4c-0.1-0.1-0.3-0.1-0.4-0.2c-0.2-0.1-0.3-0.1-0.5-0.2
		c-0.2-0.1-0.3-0.2-0.5-0.3c-0.3-0.2-0.7-0.4-1-0.7c-0.2-0.1-0.3-0.2-0.5-0.4c-0.2-0.1-0.3-0.3-0.5-0.4c-0.3-0.3-0.7-0.6-1-0.9
		c-0.4-0.3-0.7-0.7-1.1-1c-0.4-0.3-0.7-0.7-1.1-1.1c-0.2-0.2-0.4-0.4-0.6-0.6c-0.2-0.2-0.4-0.4-0.5-0.6
		C211,127.4,210.8,127.2,210.6,127z M216.7,147.7l0.2,11.9l-2.9-8.2l-1.1,3c0,0,2.7,5.9,4.1,11.6c-0.2-0.5-0.4-1.1-0.7-1.6
		c-0.4-0.6-0.8-1.3-1.3-1.8c-0.5-0.6-1.2-1-1.9-1.4s-1.5-0.6-2.3-0.7c-0.2,0-0.4,0-0.6,0h-0.1H210h-0.1c-0.1,0-0.2,0-0.3,0
		c-0.4,0-0.8,0-1.1,0.1c-0.7,0.1-1.4,0.3-2,0.7s-1.1,0.8-1.4,1.3c-0.3,0.5-0.5,1-0.6,1.5s-0.1,0.9-0.2,1.2c0,0.3,0,0.6,0,0.8
		s0,0.3,0,0.3s0-0.4,0.1-1c0-0.3,0.1-0.7,0.3-1.1c0.1-0.4,0.4-0.9,0.7-1.3c0.3-0.4,0.8-0.8,1.3-1.1s1.2-0.5,1.9-0.6
		c0.3,0,0.7-0.1,1-0.1c0.1,0,0.2,0,0.3,0h0.1h0.1h0.1c0.2,0,0.4,0,0.5,0c0.7,0.1,1.4,0.3,2.1,0.6c0.6,0.3,1.2,0.7,1.7,1.3
		c0.5,0.5,0.9,1.1,1.3,1.7c0.4,0.6,0.6,1.2,0.9,1.8c0.2,0.6,0.4,1.2,0.6,1.7c0.3,0.9,0.4,1.8,0.5,2.4c0.2,2.2-0.1,4.1-1.1,5.2
		c-4,4.5-13.6-4.2-13.6-4.2l-2.7-2c1.1-0.7,1.1-2.3,1.1-2.3v-28.9c0.4-1.8,4.2,0,4.2,0c8.6,4.9,13.3,2.9,13.3,2.9
		C216.9,144.3,216.7,147.7,216.7,147.7z M222.2,140.1c0,0-0.2,0.3-0.4,0.9c-1,3.3-1.4,12.2-1.4,12.2c-0.9-5.4,0.6-10.2,1.4-12.2
		C221.9,140.6,222,140.3,222.2,140.1z"/>
	<path fill="#D1D3D4" d="M356.6,130.4c-0.5-0.2-1.2-0.6-2.1-1s-2-0.9-3.4-1.3c-1.3-0.5-2.8-0.9-4.5-1.3s-3.5-0.7-5.5-0.9
		c-2-0.2-4.1-0.2-6.2-0.1c-2.2,0.2-4.4,0.5-6.6,1.1s-4.4,1.5-6.4,2.5c-2,1.1-3.9,2.4-5.7,3.8c-1.8,1.4-3.4,2.9-4.9,4.5
		c-1.4,1.6-2.7,3.3-3.7,5s-1.9,3.3-2.6,4.9c-0.7,1.6-1.2,3.1-1.5,4.4c0,0.1-0.1,0.3-0.1,0.4c1.3-6.9,3.3-13,3.3-13s-1-0.7-1.6,1.2
		c-0.6,2-2.4,6.7-2.4,6.7s-0.9-9.8,1.3-21c0,0-0.8-0.1-1,0.4c-0.2,0.4-4.8,0.3-4.8,0.3s-1.5,0-4.9-0.5c0.3,0,0.6,0,1,0
		c1.1,0,2.2,0,3.3-0.1c1.1-0.1,2.3-0.3,3.4-0.5c1.1-0.3,2.2-0.7,3.2-1.3c0.5-0.3,1-0.6,1.4-1c0.1-0.1,0.2-0.2,0.3-0.3l0.1-0.2
		l0.1-0.2c0.2-0.2,0.3-0.5,0.5-0.7c0.6-0.9,0.9-2,1-3s-0.1-2-0.5-2.8c-0.3-0.8-0.8-1.4-1.3-2c-0.5-0.5-0.9-0.9-1.3-1.2
		c-0.4-0.3-0.7-0.5-0.9-0.7c-0.2-0.1-0.4-0.2-0.4-0.2s0.1,0.1,0.3,0.2c0.2,0.2,0.5,0.4,0.9,0.7c0.4,0.3,0.8,0.8,1.2,1.3
		c0.4,0.5,0.8,1.2,1.1,2c0.3,0.8,0.4,1.7,0.3,2.6s-0.5,1.9-1,2.7c-0.1,0.2-0.3,0.4-0.4,0.6l-0.1,0.2l-0.1,0.1
		c-0.1,0.1-0.2,0.2-0.3,0.3c-0.4,0.4-0.8,0.7-1.3,0.9c-0.9,0.5-2,0.9-3.1,1.2c-1.1,0.3-2.2,0.4-3.3,0.5c-1.1,0.1-2.2,0.2-3.2,0.2
		c-1.1,0-2.1,0-3,0s-1.8-0.1-2.6-0.2c-0.6-0.1-1.1-0.2-1.8-0.3c-8-1.5-11.2,2.7-11.2,2.7c4.7-0.3,11.4,0.8,11.4,0.8
		c-5.5-0.4-12.7,0.2-12.7,0.2l-3.4,2.8c-1.2,2.2,0.3,3.9,0.3,3.9l0.2-0.6c-0.3-0.9,0.4-1.5,0.4-1.5s3.5-1.9,9.6-0.9
		s15.1,0.7,15.1,0.7c-3.6,3.4-1.9,17.4-1.9,17.4L294,150l-8.4-11.4l-2.3-0.9l2.3,4.5l-6.2-6.3l-5,3.2l-1.3,14.7l0.2-12l-3.3,4.5
		c0,0,0.2,9.1,0.3,17.4c0.2,8.3-1.1,9.9-1.1,9.9c2.3,0,9.2,2.1,9.2,2.1c-5.5-1.2-8.6-1-8.6-1c-8,5.7-6.6,7.9-6.6,7.9s0.6-2.1,4-2
		c2.4,0.1,11.3,0.5,16.4,0.8c-0.1,0-0.2,0-0.2,0c-1.1,0-2.3,0.1-3.6,0.2c-1.3,0.1-2.6,0.2-4,0.5c-1.4,0.2-2.8,0.5-4.2,0.8
		c-1.4,0.4-2.9,0.8-4.3,1.4c-1.4,0.6-2.7,1.3-3.9,2.2c-0.6,0.5-1.1,1-1.6,1.6c-0.1,0.1-0.2,0.3-0.3,0.5c-0.1,0.2-0.2,0.3-0.3,0.5
		c-0.2,0.3-0.3,0.6-0.5,0.9c-0.6,1.3-1.1,2.6-1.2,3.9c0,0.3-0.1,0.6-0.1,1c0,0.3,0,0.6,0,0.9c0,0.6,0.1,1.2,0.2,1.8
		c0.2,1.1,0.6,2.1,1,2.9c0.4,0.8,0.8,1.5,1.2,2c0.4,0.5,0.7,0.9,1,1.1c0.2,0.2,0.4,0.4,0.4,0.4s-0.1-0.1-0.4-0.4
		c-0.2-0.3-0.6-0.7-0.9-1.2c-0.4-0.5-0.8-1.2-1.1-2c-0.2-0.4-0.4-0.9-0.5-1.3c-0.1-0.2-0.1-0.5-0.2-0.7c0-0.3-0.1-0.5-0.1-0.8
		c-0.1-0.5-0.1-1.1-0.1-1.7c0-0.5,0-1,0.1-1.5c0,0.3,0.2,0.6,0.8,0.6c1,0,1-1.4,0.6-2.5c-0.3-0.8-0.1-1.8,0.1-2.6
		c0.1-0.1,0.1-0.2,0.2-0.4c0.1-0.1,0.2-0.3,0.3-0.4c0.1-0.1,0.2-0.3,0.3-0.4c0.4-0.5,0.9-1,1.5-1.5c1.1-0.9,2.4-1.6,3.8-2.1
		c1.4-0.6,2.8-1,4.2-1.4c1.4-0.4,2.8-0.6,4.2-0.9c2.7-0.5,5.3-0.7,7.5-0.9c1.3-0.1,2.5-0.2,3.5-0.2c0.2,0,0.3,0,0.3,0
		s11.4,0.9,15.5-6.7c0,0-4.5,0.8-5.7,0.2c0,0,5-4.3,5.1-13.7c0-1,0.1-2.1,0.2-3.1l0,0l0,0c0.1-0.8,0.2-1.6,0.3-2.4
		c0-0.2,0.1-0.4,0.1-0.6c0.2-1,0.5-2.2,0.9-3.5s0.9-2.8,1.6-4.4c0.7-1.6,1.6-3.2,2.6-4.8c1.1-1.6,2.3-3.3,3.8-4.8
		c1.4-1.6,3.1-3.1,4.8-4.4c1-0.8,2-1.5,3-2.1c0.5-0.2,1.1-0.3,1.6-0.2c1.1,0.2,2.5-0.1,2.3-1.1c-0.1-0.5-0.3-0.6-0.5-0.7
		c1.8-0.9,3.6-1.6,5.4-2.1c2.1-0.6,4.3-1,6.4-1.2s4.2-0.2,6.1,0s3.8,0.4,5.4,0.8c3.3,0.7,6.1,1.6,7.9,2.4
		C355.4,129.9,356.1,130.2,356.6,130.4c0.5,0.3,0.7,0.4,0.7,0.4S357.1,130.6,356.6,130.4z M294.4,168.9c0.1,3.2-2.8,4.7-2.8,4.7
		s-3.1,1.1-8.5-0.5s-7.3-0.9-7.3-0.9s1.7-5.7,1.8-10.4c0-4.7,1.9-8.3,1.9-8.3l-0.6-2.9l-1.6,3l1.8-10.6c0,0,3.3,5.1,6.4,9.8
		c0,0,0.2,0.2,0.4,0.6c0.2,0.4,0.5,1,0.9,1.7c0.2,0.4,0.3,0.7,0.5,1.1c0.2,0.4,0.3,0.9,0.4,1.3c0.1,0.5,0.2,0.9,0.2,1.4
		s-0.1,1-0.2,1.4c-0.2,0.5-0.4,0.9-0.7,1.2c-0.1,0.1-0.2,0.2-0.2,0.3c-0.1,0.1-0.2,0.2-0.3,0.2l-0.1,0.1l0,0l0,0l0,0l0,0l-0.1,0.1
		c-0.1,0.1-0.2,0.1-0.3,0.1c-0.4,0.2-0.8,0.3-1.3,0.3c-0.1,0-0.2,0-0.3,0c-0.1,0-0.1,0-0.1,0h-0.1c-0.1,0-0.2,0-0.3-0.1
		c-0.1,0-0.2-0.1-0.3-0.1c-0.3-0.1-0.6-0.3-0.9-0.5c-0.1-0.1-0.2-0.2-0.3-0.3c-0.1-0.1-0.2-0.2-0.3-0.3c-0.3-0.3-0.5-0.5-0.5-0.5
		s0.1,0.2,0.4,0.6c0.1,0.1,0.2,0.2,0.2,0.3c0.1,0.1,0.2,0.2,0.3,0.3c0.2,0.2,0.5,0.5,0.9,0.7c0.1,0,0.2,0.1,0.3,0.1
		c0.1,0,0.2,0.1,0.3,0.1c0.1,0,0.2,0.1,0.3,0.1c0.1,0,0.2,0,0.4,0c0.5,0,1,0,1.5-0.2c0.1,0,0.2-0.1,0.4-0.2c0.1,0,0.1-0.1,0.2-0.1
		l0,0l0,0l0,0l0,0l0,0l0.1-0.1c0.1-0.1,0.2-0.2,0.3-0.3c0.1-0.1,0.2-0.2,0.3-0.3c0.4-0.4,0.7-0.9,0.9-1.4c0.2-0.5,0.3-1.1,0.2-1.6
		c0-0.5-0.1-1.1-0.2-1.6s-0.3-0.9-0.5-1.4v-0.1c1.2,1.8,2.3,3.3,2.9,3.9c2.3,2.6-0.5,5-0.5,5c3.2-0.1,4.7-3.3,4.7-3.3
		S294.4,165.6,294.4,168.9z"/>
	<path fill="#D1D3D4" d="M206.3,111.1c0,0-1.2,0-1.4,2c0,0-0.8,6.1,6.3,12c0,0-3-3.5-2.9-8.7C208.4,111.3,206.3,111.1,206.3,111.1z"
		/>
	<path fill="#D1D3D4" d="M100.7,167c0,0,4.5,4.2,13.5,1.8c0,0-4.6,0.4-8.7-2.7c-4.1-3-5.5-1.4-5.5-1.4S99.3,165.7,100.7,167z"/>
	<path fill="#D1D3D4" d="M248.6,159.5c-1.7-1-2.4-0.1-2.4-0.1s-1.1,1.8,3,4.8s5.2,7.5,5.2,7.5C253.9,162.5,248.6,159.5,248.6,159.5z
		"/>
</g>
</svg>
